<svg viewBox="0 0 1200 600" xmlns="http://www.w3.org/2000/svg">
  <!-- Background -->
  <rect width="1200" height="600" fill="#f8f9fa"/>
  <!-- Title -->
  <text x="600" y="40" font-family="Arial, sans-serif" font-size="36" font-weight="bold" text-anchor="middle" fill="#333">
    Proces JAKCO
  </text>
  <!-- JAK Node 1 -->
  <rect x="80" y="100" width="180" height="80" fill="#e3f2fd" rx="12" stroke="#1976d2" stroke-width="3"/>
  <text x="170" y="130" font-family="Arial, sans-serif" font-size="20" font-weight="bold" text-anchor="middle" fill="#1976d2">
    JAK
  </text>
  <text x="170" y="155" font-family="Arial, sans-serif" font-size="16" text-anchor="middle" fill="#333">
    User Story
  </text>
  <!-- Arrow 1 -->
  <path d="M 260 140 L 320 140" stroke="#ff6b35" stroke-width="4" marker-end="url(#arrowhead)"/>
  <!-- CO Node 1 -->
  <rect x="340" y="100" width="180" height="80" fill="#fff3e0" rx="12" stroke="#ff6b35" stroke-width="3"/>
  <text x="430" y="130" font-family="Arial, sans-serif" font-size="20" font-weight="bold" text-anchor="middle" fill="#ff6b35">
    CO
  </text>
  <text x="430" y="155" font-family="Arial, sans-serif" font-size="16" text-anchor="middle" fill="#333">
    Implementation
  </text>
  <!-- Arrow 2 -->
  <path d="M 520 140 L 580 140" stroke="#4caf50" stroke-width="4" marker-end="url(#arrowhead2)"/>
  <!-- Test Node -->
  <rect x="600" y="100" width="180" height="80" fill="#e8f5e8" rx="12" stroke="#4caf50" stroke-width="3"/>
  <text x="690" y="130" font-family="Arial, sans-serif" font-size="20" font-weight="bold" text-anchor="middle" fill="#4caf50">
    TEST
  </text>
  <text x="690" y="155" font-family="Arial, sans-serif" font-size="16" text-anchor="middle" fill="#333">
    User Feedback
  </text>
  <!-- Arrow 3 -->
  <path d="M 780 140 L 840 140" stroke="#4caf50" stroke-width="4" marker-end="url(#arrowhead2)"/>
  <!-- Decision Diamond -->
  <polygon points="860,100 920,140 860,180 800,140" fill="#fff8e1" stroke="#ffc107" stroke-width="3"/>
  <text x="860" y="150" font-family="Arial, sans-serif" font-size="18" font-weight="bold" text-anchor="middle" fill="#f57c00">
    OK?
  </text>
  <!-- YES path - top -->
  <path d="M 880 120 L 1000 120 L 1000 60 L 170 60 L 170 220" stroke="#4caf50" stroke-width="4" marker-end="url(#arrowhead2)" fill="none"/>
  <text x="1020" y="50" font-family="Arial, sans-serif" font-size="16" font-weight="bold" fill="#4caf50">
    YES - Next Feature
  </text>
  <!-- NO path - bottom -->
  <path d="M 840 160 Q 700 250 430 250 Q 170 250 170 180" stroke="#f44336" stroke-width="4" marker-end="url(#arrowhead3)" fill="none"/>
  <text x="500" y="270" font-family="Arial, sans-serif" font-size="16" font-weight="bold" fill="#f44336">
    NO - Iterate
  </text>
  <!-- JAK Node 2 -->
  <rect x="80" y="240" width="180" height="80" fill="#e3f2fd" rx="12" stroke="#1976d2" stroke-width="3"/>
  <text x="170" y="270" font-family="Arial, sans-serif" font-size="20" font-weight="bold" text-anchor="middle" fill="#1976d2">
    JAK
  </text>
  <text x="170" y="295" font-family="Arial, sans-serif" font-size="16" text-anchor="middle" fill="#333">
    Next Story
  </text>
  <!-- Arrow 4 -->
  <path d="M 260 280 L 320 280" stroke="#ff6b35" stroke-width="4" marker-end="url(#arrowhead)"/>
  <!-- CO Node 2 -->
  <rect x="340" y="240" width="180" height="80" fill="#fff3e0" rx="12" stroke="#ff6b35" stroke-width="3"/>
  <text x="430" y="270" font-family="Arial, sans-serif" font-size="20" font-weight="bold" text-anchor="middle" fill="#ff6b35">
    CO
  </text>
  <text x="430" y="295" font-family="Arial, sans-serif" font-size="16" text-anchor="middle" fill="#333">
    Build More
  </text>
  <!-- Continuation dots -->
  <circle cx="580" cy="280" r="6" fill="#666"/>
  <circle cx="610" cy="280" r="6" fill="#666"/>
  <circle cx="640" cy="280" r="6" fill="#666"/>
  <!-- Legend Box -->
  <rect x="80" y="380" width="1040" height="180" fill="white" rx="12" stroke="#ddd" stroke-width="2"/>
  <text x="120" y="420" font-family="Arial, sans-serif" font-size="24" font-weight="bold" fill="#333">
    Legenda:
  </text>
  <!-- Legend items -->
  <rect x="120" y="440" width="40" height="30" fill="#e3f2fd" stroke="#1976d2" stroke-width="2" rx="4"/>
  <text x="180" y="460" font-family="Arial, sans-serif" font-size="18" fill="#333">
    JAK - Scenariusz użytkownika
  </text>
  <rect x="120" y="480" width="40" height="30" fill="#fff3e0" stroke="#ff6b35" stroke-width="2" rx="4"/>
  <text x="180" y="500" font-family="Arial, sans-serif" font-size="18" fill="#333">
    CO - Implementacja techniczna
  </text>
  <rect x="120" y="520" width="40" height="30" fill="#e8f5e8" stroke="#4caf50" stroke-width="2" rx="4"/>
  <text x="180" y="540" font-family="Arial, sans-serif" font-size="18" fill="#333">
    TEST - Weryfikacja z userem
  </text>
  <polygon points="620,440 660,455 620,470 580,455" fill="#fff8e1" stroke="#ffc107" stroke-width="2"/>
  <text x="680" y="460" font-family="Arial, sans-serif" font-size="18" fill="#333">
    Decyzja - czy user jest zadowolony?
  </text>
  <!-- Arrow markers -->
  <defs>
    <marker id="arrowhead" markerWidth="15" markerHeight="10" refX="15" refY="5" orient="auto">
      <polygon points="0 0, 15 5, 0 10" fill="#ff6b35"/>
    </marker>
    <marker id="arrowhead2" markerWidth="15" markerHeight="10" refX="15" refY="5" orient="auto">
      <polygon points="0 0, 15 5, 0 10" fill="#4caf50"/>
    </marker>
    <marker id="arrowhead3" markerWidth="15" markerHeight="10" refX="15" refY="5" orient="auto">
      <polygon points="0 0, 15 5, 0 10" fill="#f44336"/>
    </marker>
  </defs>
</svg>
