<svg viewBox="0 0 1400 700" xmlns="http://www.w3.org/2000/svg">
  <!-- Background -->
  <rect width="1400" height="700" fill="#f8f9fa"/>
  <!-- Title -->
  <text x="700" y="50" font-family="Arial, sans-serif" font-size="42" font-weight="bold" text-anchor="middle" fill="#333">
    Proces JAKCO
  </text>
  <!-- Green rectangle for YES path -->
  <rect x="120" y="80" width="1160" height="150" fill="none" stroke="#4caf50" stroke-width="3" rx="20"/>
  <text x="1300" y="40" font-family="Arial, sans-serif" font-size="18" font-weight="bold" fill="#4caf50">
    YES - Next Feature
  </text>
  <!-- JAK Node 1 -->
  <rect x="150" y="110" width="200" height="90" fill="#e3f2fd" rx="15" stroke="#1976d2" stroke-width="4"/>
  <text x="250" y="145" font-family="Arial, sans-serif" font-size="24" font-weight="bold" text-anchor="middle" fill="#1976d2">
    JAK
  </text>
  <text x="250" y="175" font-family="Arial, sans-serif" font-size="18" text-anchor="middle" fill="#333">
    User Story
  </text>
  <!-- CO Node 1 -->
  <rect x="440" y="110" width="200" height="90" fill="#fff3e0" rx="15" stroke="#ff6b35" stroke-width="4"/>
  <text x="540" y="145" font-family="Arial, sans-serif" font-size="24" font-weight="bold" text-anchor="middle" fill="#ff6b35">
    CO
  </text>
  <text x="540" y="175" font-family="Arial, sans-serif" font-size="18" text-anchor="middle" fill="#333">
    Implementation
  </text>
  <!-- TEST Node -->
  <rect x="730" y="110" width="200" height="90" fill="#e8f5e8" rx="15" stroke="#4caf50" stroke-width="4"/>
  <text x="830" y="145" font-family="Arial, sans-serif" font-size="24" font-weight="bold" text-anchor="middle" fill="#4caf50">
    TEST
  </text>
  <text x="830" y="175" font-family="Arial, sans-serif" font-size="18" text-anchor="middle" fill="#333">
    User Feedback
  </text>
  <!-- Decision Diamond -->
  <polygon points="1020,110 1080,155 1020,200 960,155" fill="#fff8e1" stroke="#ffc107" stroke-width="4"/>
  <text x="1020" y="165" font-family="Arial, sans-serif" font-size="20" font-weight="bold" text-anchor="middle" fill="#f57c00">
    OK?
  </text>
  <!-- NO path - red curve -->
  <path d="M 980 180 Q 750 320 540 320 Q 250 320 250 210" stroke="#f44336" stroke-width="5" fill="none"/>
  <text x="600" y="350" font-family="Arial, sans-serif" font-size="18" font-weight="bold" fill="#f44336">
    NO - Iterate
  </text>
  <!-- JAK Node 2 -->
  <rect x="150" y="280" width="200" height="90" fill="#e3f2fd" rx="15" stroke="#1976d2" stroke-width="4"/>
  <text x="250" y="315" font-family="Arial, sans-serif" font-size="24" font-weight="bold" text-anchor="middle" fill="#1976d2">
    JAK
  </text>
  <text x="250" y="345" font-family="Arial, sans-serif" font-size="18" text-anchor="middle" fill="#333">
    Next Story
  </text>
  <!-- CO Node 2 -->
  <rect x="440" y="280" width="200" height="90" fill="#fff3e0" rx="15" stroke="#ff6b35" stroke-width="4"/>
  <text x="540" y="315" font-family="Arial, sans-serif" font-size="24" font-weight="bold" text-anchor="middle" fill="#ff6b35">
    CO
  </text>
  <text x="540" y="345" font-family="Arial, sans-serif" font-size="18" text-anchor="middle" fill="#333">
    Build More
  </text>
  <!-- Continuation dots -->
  <circle cx="700" cy="325" r="8" fill="#666"/>
  <circle cx="730" cy="325" r="8" fill="#666"/>
  <circle cx="760" cy="325" r="8" fill="#666"/>
  <!-- Legend Box -->
  <rect x="120" y="450" width="1160" height="200" fill="white" rx="20" stroke="#ddd" stroke-width="3"/>
  <text x="160" y="500" font-family="Arial, sans-serif" font-size="28" font-weight="bold" fill="#333">
    Legenda:
  </text>
  <!-- Legend items - first row -->
  <rect x="160" y="520" width="50" height="35" fill="#e3f2fd" stroke="#1976d2" stroke-width="3" rx="8"/>
  <text x="230" y="545" font-family="Arial, sans-serif" font-size="20" fill="#333">
    JAK - Scenariusz użytkownika
  </text>
  <polygon points="720,520 770,537 720,555 670,537" fill="#fff8e1" stroke="#ffc107" stroke-width="3"/>
  <text x="790" y="545" font-family="Arial, sans-serif" font-size="20" fill="#333">
    Decyzja - czy user jest zadowolony?
  </text>
  <!-- Legend items - second row -->
  <rect x="160" y="570" width="50" height="35" fill="#fff3e0" stroke="#ff6b35" stroke-width="3" rx="8"/>
  <text x="230" y="595" font-family="Arial, sans-serif" font-size="20" fill="#333">
    CO - Implementacja techniczna
  </text>
  <!-- Legend items - third row -->
  <rect x="160" y="620" width="50" height="35" fill="#e8f5e8" stroke="#4caf50" stroke-width="3" rx="8"/>
  <text x="230" y="645" font-family="Arial, sans-serif" font-size="20" fill="#333">
    TEST - Weryfikacja z userem
  </text>
</svg>
